<svg xmlns="http://www.w3.org/2000/svg" width="187.536" height="916.568" viewBox="0 0 187.536 916.568">
  <g id="Group_37" data-name="Group 37" transform="translate(-3549.129 2134.051)">
    <g id="Group_36" data-name="Group 36">
      <path id="Path_26" data-name="Path 26" d="M3549.129-1400.779v-193.272h58.4l35.069,131.836,34.672-131.836h58.536v193.272h-36.255v-152.139l-38.365,152.139h-37.573l-38.232-152.139v152.139Z" transform="translate(0 -60)" fill="#5bb4d8"/>
      <path id="Path_24" data-name="Path 24" d="M3564.487-2134.051h71.324q24.126,0,36.782,3.692a64.665,64.665,0,0,1,29.136,17.8,84.483,84.483,0,0,1,18.457,31.312q6.327,18.524,6.328,45.681,0,23.862-5.933,41.132-7.252,21.094-20.7,34.146-10.154,9.888-27.422,15.425-12.921,4.087-34.541,4.087h-73.433Zm39.024,32.7v128.012h29.135q16.347,0,23.6-1.845A36.043,36.043,0,0,0,3672-1983.23q6.26-5.667,10.217-18.655t3.955-35.4q0-22.412-3.955-34.409t-11.074-18.721a37.142,37.142,0,0,0-18.062-9.1q-8.175-1.845-32.036-1.845Z" fill="#5bb4d8"/>
      <path id="Path_25" data-name="Path 25" d="M3572.068-1670.779v-193.272h143.306v32.7H3611.092v42.846h97.031v32.564h-97.031v52.6h107.973v32.564Z" transform="translate(0 -30)" fill="#5bb4d8"/>
      <path id="Path_27" data-name="Path 27" d="M3549.194-1226.229q0-29.529,8.833-49.57a90.957,90.957,0,0,1,18-26.5,75.241,75.241,0,0,1,24.983-17.4q18.06-7.646,41.66-7.647,42.716,0,68.357,26.5t25.642,73.7q0,46.8-25.444,73.234t-68.028,26.434q-43.11,0-68.554-26.3T3549.194-1226.229Zm40.21-1.318q0,32.828,15.161,49.768t38.5,16.941q23.334,0,38.3-16.809t14.963-50.427q0-33.224-14.567-49.571t-38.694-16.347q-24.126,0-38.892,16.545T3589.4-1227.547Z" transform="translate(0 -90)" fill="#5bb4d8"/>
    </g>
  </g>
</svg>
