<svg xmlns="http://www.w3.org/2000/svg" viewBox="0 0 869.9 94.61"><defs><style>.cls-1{fill:#53ad8f;}.cls-2{fill:#d0d0d0;}</style></defs><title>rectangle</title><g id="Layer_2" data-name="Layer 2"><g id="Layer_1-2" data-name="Layer 1"><rect class="cls-1" y="0.25" width="869.9" height="94.37"/><path class="cls-2" d="M233,20q-2.22,7.32-5.76,10.52a20.25,20.25,0,0,1-8.88,4.53q-4.08,1-13.3,1H188.64V1c-6.52-.1-13-.32-19.48-.71l-2.52,0V54.49H208q12.19,0,19.47-2.3,9.75-3.12,15.46-8.7,7.59-7.35,11.67-19.25Q258,14.51,258,1.05L235.24.85Q235.17,12.94,233,20Z"/><path class="cls-2" d="M353.29.51v.65c-4.05-.55-8.13-.9-12.24-1.11l-10.84,0,4.19,11.29H304.67l3.76-10.33.31-.86c-6.76.17-13.48.27-20.13,0H286.7L265.57,54.49h23.34l9-24.75h43.56L351,54.49h23.93Z"/><path class="cls-2" d="M461,0h-60.1c1.19.65,2.48,1.28,3.88,1.89a97.16,97.16,0,0,0,15.06,4.88q13.74,3.42,17.61,4.76,5.65,2,7.92,4.72a9.92,9.92,0,0,1,2.26,6.58q0,6-5.38,10.52t-16,4.49q-10,0-15.95-5.05T402.41,17L381,19q2.14,18.29,13.23,27.84T426,56.43q14.2,0,23.72-4A31.18,31.18,0,0,0,464.4,40.3a32.1,32.1,0,0,0,5.21-17.55q0-10.32-4.35-17.35A30.41,30.41,0,0,0,461,0Z"/><path class="cls-2" d="M490.43.39A14.49,14.49,0,0,1,488.19.2V54.49h22V6.85H553.3V54.49h22V.39Z"/><path class="cls-2" d="M677.54.51l-.21-.12H598.12v54.1h37.09q21-.14,26.54-.74a31.15,31.15,0,0,0,14.75-5.17,29,29,0,0,0,9.44-11.22A32.3,32.3,0,0,0,689.4,22.9a26.28,26.28,0,0,0-5.35-16.42A25.82,25.82,0,0,0,677.54.51Zm-14,30.61a13.7,13.7,0,0,1-8,4.35q-3.2.66-15.09.66H620.12V7h17.77q15,0,19.51,1.56a13.39,13.39,0,0,1,6.87,5,14.17,14.17,0,0,1,2.38,8.32Q666.65,27.67,663.57,31.12Z"/><path class="cls-2" d="M786.47.18q-.13,18.54-8.43,27.89a27.63,27.63,0,0,1-21.6,9.48A27.87,27.87,0,0,1,734.74,28Q726.25,18.51,726.2.18H703.53c0,.17,0,.33,0,.5q0,26,14.35,40.84t38.65,14.83q24,0,38.35-14.9T809.22.18Z"/><path class="cls-2" d="M869.83,11.81c0-.15,0-.28,0-.43H854.41l3.9-10.7.18-.5h-22l-.2.5-21,53.81h23.34l9-24.75h22.18Z"/></g></g></svg>